<?xml version="1.0" standalone="no"?>
<!DOCTYPE svg PUBLIC "-//W3C//DTD SVG 20010904//EN"
 "http://www.w3.org/TR/2001/REC-SVG-20010904/DTD/svg10.dtd">
<svg version="1.0" xmlns="http://www.w3.org/2000/svg"
 width="700.000000pt" height="700.000000pt" viewBox="0 0 700.000000 700.000000"
 preserveAspectRatio="xMidYMid meet">
<metadata>
Created by potrace 1.11, written by Peter Selinger 2001-2013
</metadata>
<g transform="translate(0.000000,700.000000) scale(0.100000,-0.100000)"
fill="#000000" stroke="none">
<path d="M3249 6846 c-2 -2 -31 -7 -64 -10 -402 -45 -847 -203 -1177 -419
-537 -351 -904 -889 -1084 -1586 -19 -74 -33 -135 -31 -137 1 -2 14 18 27 44
194 370 497 723 815 949 141 99 321 199 482 267 104 44 325 114 413 131 77 15
193 35 230 40 25 3 61 8 80 10 177 23 736 23 990 1 19 -2 71 -6 115 -10 44 -4
96 -9 115 -11 19 -2 55 -7 80 -10 111 -14 140 -29 140 -75 0 -30 -28 -61 -56
-62 -11 -1 -35 2 -54 5 -78 13 -189 25 -305 32 -44 3 -120 7 -170 10 -154 10
-656 13 -736 5 -42 -5 -105 -11 -140 -15 -51 -5 -280 -47 -324 -59 -5 -1 -30
-8 -55 -15 -319 -86 -645 -259 -895 -475 -196 -169 -420 -432 -521 -611 -6
-11 -33 -58 -60 -105 -47 -81 -59 -104 -125 -245 -85 -185 -129 -329 -137
-450 -11 -181 -4 -618 13 -703 1 -9 6 -55 10 -102 3 -47 8 -92 10 -100 2 -8 7
-35 10 -60 3 -25 8 -56 10 -70 2 -14 7 -45 10 -70 8 -55 50 -262 72 -350 141
-574 353 -1010 659 -1360 l69 -79 486 0 486 -1 1 44 c2 87 54 164 137 202 l50
24 673 0 c483 0 686 -3 720 -12 33 -8 60 -25 94 -59 47 -47 65 -88 70 -161 l2
-38 512 0 511 0 37 55 c104 158 226 384 306 570 23 55 48 114 55 130 81 185
209 608 261 860 12 58 35 184 40 215 3 19 7 46 10 60 2 14 6 43 9 65 3 22 8
58 11 80 3 22 7 51 9 65 6 46 17 154 20 195 2 22 6 92 10 155 10 151 12 513 4
609 -24 265 -303 741 -642 1098 -90 95 -107 117 -102 136 17 55 65 65 119 24
86 -66 299 -321 422 -504 41 -62 76 -113 78 -113 4 0 -62 199 -92 275 -79 206
-196 433 -310 603 -375 557 -912 916 -1582 1056 -69 14 -143 28 -165 31 -47 5
-106 13 -155 21 -40 6 -496 15 -501 10z m321 -211 c121 -61 116 -243 -8 -302
-100 -48 -221 14 -237 121 -9 61 1 98 38 141 53 60 135 76 207 40z m1221 -708
c52 -24 135 -66 183 -93 48 -27 99 -55 112 -62 13 -7 30 -26 38 -41 18 -35 3
-71 -36 -85 -22 -8 -39 -1 -119 47 -52 30 -134 74 -184 97 -49 23 -105 49
-123 57 -65 31 -49 114 23 122 6 0 53 -19 106 -42z m-2049 -354 c24 -22 24
-75 -2 -90 -10 -7 -59 -21 -107 -32 -214 -47 -393 -131 -588 -278 -214 -161
-442 -431 -610 -722 -36 -63 -68 -107 -78 -109 -61 -12 -97 35 -72 95 61 146
277 450 436 615 289 298 555 451 924 531 44 10 79 6 97 -10z m-257 -1377 c279
-60 522 -230 674 -473 37 -60 104 -220 116 -278 5 -22 10 -47 12 -55 16 -71
22 -211 11 -300 -57 -503 -483 -890 -993 -904 -257 -7 -539 110 -734 306 -395
396 -395 1021 1 1420 239 240 597 352 913 284z m2372 5 c338 -62 639 -306 768
-622 50 -123 69 -224 69 -369 0 -137 -9 -203 -45 -320 -126 -403 -534 -702
-959 -703 -268 -1 -531 110 -725 307 -133 134 -217 281 -267 464 -28 103 -34
326 -12 427 22 98 21 94 42 155 141 402 553 686 977 674 50 -1 118 -7 152 -13z
m-1335 -2017 c17 -9 36 -20 42 -25 6 -6 88 -64 181 -131 94 -67 173 -126 177
-132 13 -19 9 -59 -9 -78 -32 -36 -62 -23 -233 102 -91 66 -171 123 -177 126
-17 8 -25 4 -109 -59 -262 -192 -287 -205 -326 -170 -32 29 -23 68 25 106 105
85 379 277 395 277 2 0 17 -7 34 -16z"/>
<path d="M2120 4069 c-95 -19 -196 -54 -207 -72 -4 -7 -8 -369 -8 -804 l0
-793 60 -24 c52 -21 82 -30 145 -43 8 -2 38 -6 66 -9 l51 -5 -1 127 c-1 128
10 183 36 185 7 0 21 2 30 4 24 4 58 -31 59 -63 0 -15 1 -78 1 -139 0 -112 0
-113 23 -113 45 0 165 30 245 61 72 27 80 33 81 57 1 15 2 368 3 786 l1 758
-37 19 c-62 31 -185 68 -253 75 l-64 7 0 -104 c1 -188 2 -183 -28 -201 -37
-21 -80 -6 -89 29 -4 14 -7 81 -7 149 0 79 -4 125 -11 127 -6 2 -49 -4 -96
-14z m254 -706 c83 -43 120 -154 80 -239 -51 -107 -193 -138 -281 -61 -44 39
-63 82 -63 143 0 133 144 219 264 157z"/>
<path d="M1681 3845 c-121 -115 -203 -251 -252 -417 -28 -96 -34 -306 -12
-405 21 -96 67 -206 121 -293 44 -71 209 -250 231 -250 7 0 11 235 11 720 0
437 -3 720 -9 720 -5 0 -45 -34 -90 -75z"/>
<path d="M2830 3199 l0 -703 32 30 c156 143 243 281 290 464 31 122 31 308 -1
430 -39 149 -124 297 -235 405 -96 95 -86 171 -86 -626z"/>
<path d="M4588 4085 c-1 -2 -21 -6 -43 -9 -22 -4 -65 -13 -95 -22 -30 -8 -59
-16 -65 -18 -5 -1 -27 -10 -47 -19 -33 -14 -38 -20 -38 -49 -3 -537 2 -1564 7
-1569 17 -16 192 -68 251 -75 l62 -6 0 139 c0 124 2 142 19 157 30 27 60 28
86 2 21 -21 22 -29 21 -160 l-1 -138 55 6 c79 10 164 33 236 66 l62 28 0 784
0 784 -31 13 c-146 60 -316 101 -318 77 0 -6 -2 -67 -3 -136 -2 -123 -12 -169
-39 -171 -32 -3 -53 4 -69 23 -15 17 -18 41 -18 153 0 105 -3 134 -14 138 -8
3 -16 4 -18 2z m182 -725 c128 -65 125 -258 -5 -322 -46 -23 -117 -23 -162 0
-48 25 -71 51 -89 99 -37 106 17 211 123 238 56 14 81 12 133 -15z"/>
<path d="M4104 3872 c-126 -105 -230 -265 -274 -424 -73 -261 -31 -525 120
-748 39 -57 169 -193 201 -211 17 -9 19 -6 19 33 3 343 0 1391 -3 1395 -3 2
-31 -18 -63 -45z"/>
<path d="M5224 3205 c0 -382 4 -695 8 -695 12 0 128 116 165 165 17 22 47 70
67 106 150 274 144 598 -18 873 -36 61 -198 246 -215 246 -4 0 -7 -313 -7
-695z"/>
<path d="M635 3810 c-11 -5 -62 -21 -113 -36 -81 -24 -98 -33 -127 -67 -34
-40 -51 -98 -41 -144 3 -12 7 -53 11 -90 3 -37 8 -79 10 -93 3 -14 7 -50 10
-80 3 -30 8 -66 10 -80 2 -14 7 -56 10 -95 4 -38 8 -76 10 -85 2 -8 6 -44 10
-80 3 -36 8 -76 10 -90 2 -14 6 -43 9 -65 3 -22 8 -67 11 -100 15 -156 26
-218 45 -255 10 -20 35 -45 56 -57 48 -26 335 -145 340 -141 2 2 -10 45 -25
96 -16 51 -27 92 -25 92 3 0 0 8 -5 18 -16 29 -88 369 -106 497 -2 11 -5 36
-9 55 -6 41 -13 87 -20 150 -5 41 -8 70 -21 195 -6 61 -16 279 -18 373 0 46
-4 85 -7 86 -3 2 -14 0 -25 -4z"/>
<path d="M6309 3753 c-1 -38 -3 -84 -4 -103 -1 -19 -5 -84 -9 -145 -7 -104
-31 -340 -41 -395 -2 -14 -7 -45 -10 -70 -6 -46 -13 -86 -41 -225 -8 -44 -18
-93 -21 -110 -7 -47 -70 -291 -98 -384 -14 -46 -24 -86 -22 -87 3 -4 368 149
392 165 37 24 62 75 70 142 4 35 9 71 10 79 1 8 6 44 10 80 3 36 8 76 10 90 2
14 6 48 9 75 3 28 8 69 11 93 10 82 14 118 20 177 4 33 8 74 10 90 3 17 7 55
10 85 3 30 8 66 10 80 8 48 19 165 20 211 0 51 -24 105 -61 132 -21 16 -239
87 -266 87 -4 0 -9 -30 -9 -67z"/>
<path d="M1364 1284 c6 -38 8 -56 21 -179 4 -33 8 -71 11 -84 2 -14 6 -52 9
-86 3 -33 8 -69 9 -80 2 -11 7 -52 11 -91 12 -122 66 -183 173 -198 26 -3 61
-8 77 -11 92 -17 310 -52 313 -50 1 1 -11 42 -27 91 -33 99 -67 255 -77 354
-3 36 -7 66 -9 68 -1 1 -59 3 -128 5 l-126 2 -42 40 c-23 22 -82 89 -131 149
-87 107 -89 108 -84 70z"/>
<path d="M5631 1262 c-57 -94 -133 -206 -152 -223 -15 -13 -44 -17 -136 -17
-65 -1 -120 -2 -123 -2 -4 0 -6 -10 -7 -22 -2 -95 -43 -301 -80 -401 -33 -92
-34 -98 -10 -92 25 5 25 6 232 41 172 29 208 43 240 93 26 40 32 70 40 211 3
52 7 111 10 130 2 19 7 80 10 135 3 55 8 124 11 153 3 28 4 52 2 52 -1 0 -18
-26 -37 -58z"/>
<path d="M2856 1289 c-21 -3 -49 -18 -64 -33 l-27 -26 -1 -185 c-1 -196 2
-214 48 -248 25 -19 46 -19 696 -20 619 0 673 1 697 17 46 30 53 65 51 258 -2
190 -5 200 -61 231 -22 12 -1269 17 -1339 6z"/>
<path d="M2015 1017 c-8 -4 -12 -17 -10 -30 3 -12 7 -39 9 -59 29 -225 109
-448 219 -606 59 -86 103 -127 166 -154 45 -19 70 -20 1121 -20 845 0 1084 2
1117 12 98 30 237 181 317 345 68 138 101 258 131 473 6 39 4 42 -17 42 -44 1
-593 1 -639 1 l-47 -1 0 -83 c0 -45 -5 -101 -12 -124 -17 -54 -61 -108 -113
-136 l-42 -22 -705 0 -705 0 -42 22 c-52 28 -100 86 -114 137 -6 22 -11 75
-12 119 0 55 -4 80 -14 84 -21 8 -593 9 -608 0z"/>
</g>
</svg>
