<?xml version="1.0" encoding="UTF-8" standalone="no"?>
<svg
   xmlns:dc="http://purl.org/dc/elements/1.1/"
   xmlns:cc="http://creativecommons.org/ns#"
   xmlns:rdf="http://www.w3.org/1999/02/22-rdf-syntax-ns#"
   xmlns:svg="http://www.w3.org/2000/svg"
   xmlns="http://www.w3.org/2000/svg"
   xmlns:sodipodi="http://sodipodi.sourceforge.net/DTD/sodipodi-0.dtd"
   xmlns:inkscape="http://www.inkscape.org/namespaces/inkscape"
   inkscape:export-ydpi="96"
   inkscape:export-xdpi="96"
   inkscape:export-filename="typical-input.png"
   width="1024"
   height="256"
   viewBox="0 0 270.93333 67.733335"
   version="1.1"
   id="svg8"
   inkscape:version="1.0beta1 (32d4812, 2019-09-19)"
   sodipodi:docname="typical.svg">
  <defs
     id="defs2" />
  <sodipodi:namedview
     id="base"
     pagecolor="#ffffff"
     bordercolor="#666666"
     borderopacity="1.0"
     inkscape:pageopacity="0.0"
     inkscape:pageshadow="2"
     inkscape:zoom="0.35"
     inkscape:cx="448.82268"
     inkscape:cy="560"
     inkscape:document-units="mm"
     inkscape:current-layer="g1332"
     showgrid="false"
     inkscape:window-width="1600"
     inkscape:window-height="907"
     inkscape:window-x="0"
     inkscape:window-y="23"
     inkscape:window-maximized="0"
     inkscape:document-rotation="0"
     units="px" />
  <metadata
     id="metadata5">
    <rdf:RDF>
      <cc:Work
         rdf:about="">
        <dc:format>image/svg+xml</dc:format>
        <dc:type
           rdf:resource="http://purl.org/dc/dcmitype/StillImage" />
        <dc:title />
      </cc:Work>
    </rdf:RDF>
  </metadata>
  <g
     inkscape:label="Layer 1"
     inkscape:groupmode="layer"
     id="layer1" />
  <g
     inkscape:groupmode="layer"
     id="layer2"
     inkscape:label="Layer 2">
    <g
       id="g1332"
       transform="matrix(1.1417078,0,0,1.1417078,-21.407076,-5.0423488)">
      <text
         id="text890"
         y="48.842449"
         x="22.027903"
         style="font-style:normal;font-variant:normal;font-weight:normal;font-stretch:condensed;font-size:51.88199999999999790px;line-height:1.25;font-family:'Input Mono';-inkscape-font-specification:'Input Mono Condensed';font-variant-ligatures:normal;font-variant-caps:normal;font-variant-numeric:normal;font-variant-east-asian:normal;letter-spacing:0px;opacity:1;stroke-width:0.192659;stop-opacity:1;"
         xml:space="preserve"><tspan
           style="font-style:normal;font-variant:normal;font-weight:normal;font-stretch:condensed;font-size:51.882px;font-family:'Input Mono';-inkscape-font-specification:'Input Mono Condensed';font-variant-ligatures:normal;font-variant-caps:normal;font-variant-numeric:normal;font-variant-east-asian:normal;letter-spacing:0px;stroke-width:0.192659"
           y="48.842449"
           x="22.027903"
           id="tspan888"
           sodipodi:role="line">typic l</tspan></text>
      <g
         id="g168"
         transform="matrix(1.1469254,0,0,1.1469254,178.16729,6.553452)"
         style="opacity:1;fill:#808080;fill-opacity:1;stroke:none;stroke-opacity:1;stop-opacity:1">
        <g
           id="Padding__x26__Artboard"
           style="fill:#808080;fill-opacity:1;stroke:none;stroke-opacity:1" />
        <g
           id="Icons"
           style="fill:#808080;fill-opacity:1;stroke:none;stroke-opacity:1">
          <g
             id="g141"
             style="fill:#808080;fill-opacity:1;stroke:none;stroke-opacity:1">
            <path
               id="path115"
               style="fill:#808080;fill-opacity:1;stroke:none;stroke-opacity:1"
               d="m 15.18457,35.78421 c -0.07191,-0.02899 -0.13573,-0.05473 -0.20764,-0.08372 -0.41235,-0.40603 -0.79227,-0.86936 -1.15417,-1.35966 l 0.33873,2.9018 c 0.04028,0.34506 0.30388,0.6219 0.64655,0.67904 l 2.02833,0.33822 c -0.40381,-1.01416 -0.52356,-1.99744 -0.5592,-2.47571 z"
               inkscape:connector-curvature="0" />
            <path
               id="path117"
               style="fill:#808080;fill-opacity:1;stroke:none;stroke-opacity:1"
               d="m 9.03227,23.61156 0.59274,5.0827 c 0.03316,0.28433 0.21759,0.52845 0.48204,0.63804 l 1.53901,0.6378 c -1.04993,-3.25104 -1.12933,-6.37726 -1.11902,-7.48114 l -0.93253,0.27333 c -0.36933,0.10825 -0.60683,0.46699 -0.56224,0.84927 z"
               inkscape:connector-curvature="0" />
            <path
               id="path119"
               style="fill:#808080;fill-opacity:1;stroke:none;stroke-opacity:1"
               d="m 20.4961,36.44678 c 0,0.27686 0.2251,0.50195 0.50195,0.50195 h 6.09619 c 0.27686,0 0.50195,-0.2251 0.50195,-0.50195 v -1.4541 c 0,-0.27686 -0.2251,-0.50195 -0.50195,-0.50195 h -6.09619 c -0.27686,0 -0.50195,0.2251 -0.50195,0.50195 v 0.48578 c 6e-5,0.0023 0.0024,0.0036 0.0024,0.0059 0,0.0023 -0.0024,0.0037 -0.0024,0.0059 z"
               inkscape:connector-curvature="0" />
            <path
               id="path121"
               style="fill:#808080;fill-opacity:1;stroke:none;stroke-opacity:1"
               d="m 33.21338,35.78418 h -1.04846 c -0.07086,1.01758 -0.28809,1.83325 -0.57263,2.47809 l 1.87429,-0.32865 c 0.35209,-0.06174 0.61717,-0.35487 0.6433,-0.71137 l 0.21196,-2.89175 c -0.47162,0.81775 -0.82513,1.27954 -0.8736,1.34039 -0.05712,0.07179 -0.14355,0.11329 -0.23486,0.11329 z"
               inkscape:connector-curvature="0" />
            <path
               id="path123"
               style="fill:#808080;fill-opacity:1;stroke:none;stroke-opacity:1"
               d="m 28.1958,36.44678 c 0,0.60838 -0.49319,1.10156 -1.10156,1.10156 h -6.09619 c -0.60838,0 -1.10156,-0.49319 -1.10156,-1.10156 v -0.6626 h -3.01624 c 0.06178,0.70739 0.31779,2.48013 1.36292,3.69206 0.2581,0.29929 0.63793,0.46907 1.03314,0.46907 h 9.72326 c 0.29822,0 0.5913,-0.08979 0.82294,-0.27761 0.59201,-0.48003 1.55931,-1.60445 1.73211,-3.88352 H 28.1958 Z"
               inkscape:connector-curvature="0" />
            <path
               id="path125"
               style="fill:#808080;fill-opacity:1;stroke:none;stroke-opacity:1"
               d="m 36.16339,30.04907 1.72957,-0.71678 c 0.26445,-0.10959 0.44888,-0.35371 0.48204,-0.63804 l 0.59274,-5.08265 c 0.04458,-0.3823 -0.19294,-0.74105 -0.5623,-0.84929 l -1.0391,-0.30449 c -0.05805,3.03766 -0.56867,5.57178 -1.20295,7.59125 z"
               inkscape:connector-curvature="0" />
            <path
               id="path127"
               style="fill:#808080;fill-opacity:1;stroke:none;stroke-opacity:1"
               d="m 36.74952,20.65576 c -0.0021,-0.03333 -0.0088,-0.12103 -0.02185,-0.24939 -8.5e-4,-0.0032 -0.0043,-0.0047 -0.005,-0.0079 -0.55176,-2.41553 -3.01514,-5.05713 -3.36426,-5.31982 -0.12061,-0.0625 -0.1875,-0.20117 -0.15332,-0.33887 0.03955,-0.16064 0.2002,-0.26074 0.36328,-0.21875 0.24542,0.06085 1.58026,1.44086 2.61188,3.1474 C 35.1197,13.98621 32.12044,8.21003 23.72023,8.05469 23.2881,8.05512 13.75227,8.03736 11.56996,18.4206 c 1.41504,-2.81006 4.66009,-7.04218 11.41199,-7.04218 0.07959,0 0.15918,4.9e-4 0.23975,0.0019 0.14014,-0.02148 3.09961,0.0034 4.72803,0.2998 0.16309,0.0293 0.271,0.18555 0.24121,0.34863 -0.0293,0.16357 -0.18994,0.27148 -0.34863,0.24121 -1.57568,-0.28662 -4.59473,-0.29004 -4.625,-0.29004 -0.07617,-9.8e-4 -0.15381,-0.0015 -0.229,-0.0015 -9.42371,0 -11.69104,8.60931 -11.78564,8.98755 -0.02863,0.36749 -0.0567,0.73645 -0.06641,1.12427 -0.002,0.04877 -0.18048,4.24237 1.28339,8.29504 3.7e-4,8.5e-4 4.3e-4,0.0016 7.9e-4,0.0024 0.001,0.0029 0.0019,0.0058 0.0029,0.0087 0.34229,0.94775 0.75,1.82471 1.2124,2.60645 0.4917,0.82275 1.0542,1.55615 1.67285,2.18164 h 1.23852 c 0.0035,-1.8e-4 0.0055,-0.0038 0.009,-0.0039 0.0019,0 0.0034,0 0.0049,0 0.0037,0 0.0059,0.0038 0.0096,0.0039 h 3.32587 v -0.19189 c 0,-0.60742 0.49414,-1.10156 1.10156,-1.10156 h 6.09619 c 0.60742,0 1.10156,0.49414 1.10156,1.10156 v 0.19189 h 3.69238 c 0.0043,0 0.0064,-0.004 0.01074,-0.0039 0.0034,1.2e-4 0.0051,0.0037 0.0085,0.0039 h 1.15509 c 0.58838,-0.81592 4.0337,-5.9834 3.68702,-14.52881 z M 23.94953,10.61194 c -0.44763,0 -0.81049,-0.36292 -0.81049,-0.81055 0,-0.44763 0.36285,-0.81049 0.81049,-0.81049 0.44764,0 0.81055,0.36285 0.81055,0.81049 0,0.44764 -0.36292,0.81055 -0.81055,0.81055 z m 5.78924,1.67419 c 0.04639,0.01855 1.14648,0.46094 1.90283,0.99072 0.13574,0.09473 0.16895,0.28174 0.07373,0.41748 -0.05811,0.0835 -0.15137,0.12793 -0.24609,0.12793 -0.05908,0 -0.11914,-0.01758 -0.17139,-0.0542 -0.69922,-0.48877 -1.771,-0.9209 -1.78174,-0.92529 -0.15381,-0.06152 -0.22852,-0.23584 -0.16699,-0.38965 0.06153,-0.15381 0.23633,-0.22802 0.38965,-0.16699 z m -16.29785,7.30225 c 0.09521,-0.20068 2.37891,-4.91846 6.71338,-5.5293 0.15869,-0.02539 0.31592,0.08984 0.33887,0.25488 0.02344,0.16406 -0.09082,0.31592 -0.25488,0.33887 -4.01172,0.56592 -6.2334,5.14648 -6.25537,5.19287 -0.05127,0.10791 -0.15918,0.1709 -0.271,0.1709 -0.04346,0 -0.08691,-0.0093 -0.12891,-0.02881 -0.14941,-0.07129 -0.21289,-0.25 -0.14209,-0.39941 z m 7.34448,9.92486 c -0.11052,0.07458 -0.22458,0.12146 -0.3584,0.19476 -0.65881,0.33734 -1.39374,0.5459 -2.18335,0.5459 -0.76495,0 -1.47913,-0.19495 -2.12262,-0.51276 -0.0028,6e-5 -0.16475,-0.08596 -0.23761,-0.12915 -1.46722,-0.83026 -2.47131,-2.38696 -2.47131,-4.18964 0,-1.8075 1.00946,-3.36749 2.48309,-4.19598 0.02692,-0.03027 0.06531,-0.03839 0.10242,-0.05573 0.67419,-0.35785 1.43103,-0.57983 2.24603,-0.57983 0.88489,0 1.7041,0.25641 2.41809,0.67346 0.02325,0.01434 0.05042,0.01746 0.06885,0.03741 1.39838,0.84747 2.34412,2.36945 2.34412,4.12067 0,1.72896 -0.92035,3.23701 -2.28931,4.09089 z m 5.21802,2.45746 c -0.05859,0.08154 -0.15088,0.125 -0.24463,0.125 -0.06006,0 -0.12109,-0.01807 -0.17432,-0.05566 l -1.63428,-1.16992 -1.62646,1.16943 c -0.13574,0.09668 -0.32275,0.06494 -0.41895,-0.06836 -0.09668,-0.13477 -0.06592,-0.32227 0.06836,-0.41895 l 1.80127,-1.29492 c 0.104,-0.0752 0.24512,-0.07471 0.3501,-4.9e-4 l 1.80957,1.29492 c 0.13428,0.09669 0.16553,0.28419 0.06934,0.41895 z M 32.1698,29.513 c 0,0 -0.11909,0.07261 -0.35871,0.19495 -0.65894,0.3374 -1.39398,0.54596 -2.18365,0.54596 -0.76489,0 -1.47894,-0.19489 -2.12231,-0.5127 -0.0028,6e-5 -0.08117,-0.03572 -0.2373,-0.12903 -1.46729,-0.8302 -2.47144,-2.38696 -2.47144,-4.18982 0,-1.80762 1.00946,-3.3678 2.48315,-4.19623 0.02661,-0.02979 0.06451,-0.0376 0.10095,-0.05487 0.67444,-0.35822 1.43152,-0.58044 2.24695,-0.58044 0.88446,0 1.70325,0.25623 2.41712,0.67285 0.02386,0.01453 0.05151,0.01788 0.07037,0.03827 1.39832,0.84753 2.34406,2.36938 2.34406,4.12042 0,1.72882 -0.92029,3.2367 -2.28919,4.09064 z"
               inkscape:connector-curvature="0" />
            <path
               id="path129"
               style="fill:#808080;fill-opacity:1;stroke:none;stroke-opacity:1"
               d="m 32.19825,22.08447 v 6.67578 c 1.00299,-0.77454 1.66113,-1.97552 1.66113,-3.33789 0,-1.36237 -0.65814,-2.56335 -1.66113,-3.33789 z"
               inkscape:connector-curvature="0" />
            <path
               id="path131"
               style="fill:#808080;fill-opacity:1;stroke:none;stroke-opacity:1"
               d="m 29.92725,22.43799 c 0,0.16553 -0.13428,0.2998 -0.2998,0.2998 -0.16552,0 -0.2998,-0.13428 -0.2998,-0.2998 v -1.21722 c -0.54559,0.03912 -1.06049,0.17566 -1.52979,0.40289 v 7.59741 c 0.4693,0.22723 0.98419,0.36377 1.52979,0.40289 v -1.21722 c 0,-0.16553 0.13428,-0.2998 0.2998,-0.2998 0.16552,0 0.2998,0.13428 0.2998,0.2998 v 1.21722 c 0.60199,-0.04315 1.16479,-0.21008 1.67139,-0.47968 v -7.44385 c -0.50659,-0.26959 -1.0694,-0.43652 -1.67139,-0.47968 z m 0.57129,2.98437 c 0,0.48108 -0.38995,0.87103 -0.87091,0.87103 -0.48102,0 -0.87097,-0.38995 -0.87097,-0.87103 0,-0.48096 0.38995,-0.87091 0.87097,-0.87091 0.48095,0 0.87091,0.38996 0.87091,0.87091 z"
               inkscape:connector-curvature="0" />
            <path
               id="path133"
               style="fill:#808080;fill-opacity:1;stroke:none;stroke-opacity:1"
               d="m 25.396,25.42236 c 0,1.4281 0.7157,2.68762 1.80225,3.45441 v -6.90881 c -1.08655,0.76678 -1.80225,2.0263 -1.80225,3.4544 z"
               inkscape:connector-curvature="0" />
            <path
               id="path135"
               style="fill:#808080;fill-opacity:1;stroke:none;stroke-opacity:1"
               d="m 14.01172,25.42236 c 0,1.4281 0.71558,2.68762 1.80225,3.45435 v -6.90869 c -1.08667,0.76672 -1.80225,2.02624 -1.80225,3.45434 z"
               inkscape:connector-curvature="0" />
            <path
               id="path137"
               style="fill:#808080;fill-opacity:1;stroke:none;stroke-opacity:1"
               d="m 20.81397,22.08441 v 6.6759 c 1.00293,-0.77454 1.66113,-1.97552 1.66113,-3.33795 0,-1.36243 -0.6582,-2.56341 -1.66113,-3.33795 z"
               inkscape:connector-curvature="0" />
            <path
               id="path139"
               style="fill:#808080;fill-opacity:1;stroke:none;stroke-opacity:1"
               d="m 18.54346,22.43799 c 0,0.16553 -0.13428,0.2998 -0.2998,0.2998 -0.16552,0 -0.2998,-0.13428 -0.2998,-0.2998 v -1.21722 c -0.54578,0.03912 -1.06085,0.17572 -1.53027,0.40295 v 7.59729 c 0.46942,0.22723 0.9845,0.36383 1.53027,0.40295 v -1.21722 c 0,-0.16553 0.13428,-0.2998 0.2998,-0.2998 0.16552,0 0.2998,0.13428 0.2998,0.2998 v 1.21722 c 0.60181,-0.04315 1.16443,-0.21002 1.6709,-0.47955 v -7.44409 c -0.50647,-0.26953 -1.06909,-0.4364 -1.6709,-0.47955 z m 0.57098,2.98437 c 0,0.48108 -0.38989,0.87103 -0.87097,0.87103 -0.48102,0 -0.87097,-0.38995 -0.87097,-0.87103 0,-0.48096 0.38995,-0.87091 0.87097,-0.87091 0.48108,0 0.87097,0.38996 0.87097,0.87091 z"
               inkscape:connector-curvature="0" />
          </g>
        </g>
      </g>
    </g>
  </g>
</svg>
